# xmcd
#
# Track frame offsets:
#	150
#	12987
#	23030
#	38254
#	49322
#	59461
#	69533
#	81931
#	92767
#	102484
#	114248
#	126743
#	136823
#	150551
#	160563
#	174359
#	185130
#	194002
#	206720
#	217031
#	230972
#	239934
#	251333
#	264846
#
# Disc length: 3685 seconds
#
# Revision: 1
# Processed by: cddbd v1.5.2PL0 Copyright (c) Steve Scherf et al.
# Submitted via: audiograbber 1.83.01
#
DISCID=5d0e6318
DTITLE=patsi cline - showcase
DYEAR=1900
DGENRE=
TTITLE0=i fall to pieces
TTITLE1=foolin' round
TTITLE2=the wayward wind
TTITLE3=south of the border (down mexico way)
TTITLE4=i love you yo much it hurts
TTITLE5=seven lonely days
TTITLE6=crazy
TTITLE7=san antonio rose
TTITLE8=true love
TTITLE9=walkin' after midnight
TTITLE10=a poor man's roses (or a rich man's gold)
TTITLE11=have you ever been lonely (have you ever been blue)
TTITLE12=she's got you
TTITLE13=heartaches
TTITLE14=that's my desire
TTITLE15=your cheatin' heart
TTITLE16=anytime
TTITLE17=you made me love you (i didn't want to do it)
TTITLE18=strange
TTITLE19=you belong to me
TTITLE20=you were only fooling (while i was falling in love)
TTITLE21=half as much
TTITLE22=i can't help it (if i'm still in love with you)
TTITLE23=lonely street
EXTD=
EXTT0=
EXTT1=
EXTT2=
EXTT3=
EXTT4=
EXTT5=
EXTT6=
EXTT7=
EXTT8=
EXTT9=
EXTT10=
EXTT11=
EXTT12=
EXTT13=
EXTT14=
EXTT15=
EXTT16=
EXTT17=
EXTT18=
EXTT19=
EXTT20=
EXTT21=
EXTT22=
EXTT23=
PLAYORDER=
